<?xml version="1.0" ?><svg xmlns="http://www.w3.org/2000/svg" xmlns:xlink="http://www.w3.org/1999/xlink" width="16px" height="16px" viewBox="0 0 16 16"><rect x="0" y="1" width="1" height="1" fill="#0c0c0c07"/><rect x="1" y="1" width="1" height="1" fill="#36363661"/><rect x="2" y="1" width="1" height="1" fill="#06060695"/><rect x="3" y="1" width="1" height="1" fill="#0a0a0a95"/><rect x="4" y="1" width="1" height="1" fill="#51515188"/><rect x="5" y="1" width="1" height="1" fill="#1212122a"/><rect x="7" y="1" width="1" height="1" fill="#12121245"/><rect x="8" y="1" width="1" height="1" fill="#1212127b"/><rect x="9" y="1" width="1" height="1" fill="#1212127f"/><rect x="10" y="1" width="1" height="1" fill="#1212127f"/><rect x="11" y="1" width="1" height="1" fill="#1212127f"/><rect x="12" y="1" width="1" height="1" fill="#1212127f"/><rect x="13" y="1" width="1" height="1" fill="#1212127e"/><rect x="14" y="1" width="1" height="1" fill="#12121249"/><rect x="15" y="1" width="1" height="1" fill="#12121203"/><rect x="0" y="2" width="1" height="1" fill="#0202022d"/><rect x="1" y="2" width="1" height="1" fill="#2c2c2ce3"/><rect x="2" y="2" width="1" height="1" fill="#525252ff"/><rect x="3" y="2" width="1" height="1" fill="#515151ff"/><rect x="4" y="2" width="1" height="1" fill="#4a4a4aff"/><rect x="5" y="2" width="1" height="1" fill="#52525289"/><rect x="6" y="2" width="1" height="1" fill="#4b4b4b15"/><rect x="7" y="2" width="1" height="1" fill="#121212d4"/><rect x="8" y="2" width="1" height="1" fill="#121212ff"/><rect x="9" y="2" width="1" height="1" fill="#121212ff"/><rect x="10" y="2" width="1" height="1" fill="#121212ff"/><rect x="11" y="2" width="1" height="1" fill="#121212ff"/><rect x="12" y="2" width="1" height="1" fill="#121212ff"/><rect x="13" y="2" width="1" height="1" fill="#121212ff"/><rect x="14" y="2" width="1" height="1" fill="#121212d5"/><rect x="15" y="2" width="1" height="1" fill="#1212121c"/><rect x="0" y="3" width="1" height="1" fill="#0202022d"/><rect x="1" y="3" width="1" height="1" fill="#2c2c2ce4"/><rect x="2" y="3" width="1" height="1" fill="#525252ff"/><rect x="3" y="3" width="1" height="1" fill="#515151ff"/><rect x="4" y="3" width="1" height="1" fill="#4a4a4aff"/><rect x="5" y="3" width="1" height="1" fill="#52525289"/><rect x="6" y="3" width="1" height="1" fill="#4c4c4c16"/><rect x="7" y="3" width="1" height="1" fill="#121212d5"/><rect x="8" y="3" width="1" height="1" fill="#121212ff"/><rect x="9" y="3" width="1" height="1" fill="#121212ff"/><rect x="10" y="3" width="1" height="1" fill="#121212ff"/><rect x="11" y="3" width="1" height="1" fill="#121212ff"/><rect x="12" y="3" width="1" height="1" fill="#121212ff"/><rect x="13" y="3" width="1" height="1" fill="#121212ff"/><rect x="14" y="3" width="1" height="1" fill="#121212d6"/><rect x="15" y="3" width="1" height="1" fill="#1212121d"/><rect x="0" y="4" width="1" height="1" fill="#0e0e0e07"/><rect x="1" y="4" width="1" height="1" fill="#38383862"/><rect x="2" y="4" width="1" height="1" fill="#07070796"/><rect x="3" y="4" width="1" height="1" fill="#08080897"/><rect x="4" y="4" width="1" height="1" fill="#5050508b"/><rect x="5" y="4" width="1" height="1" fill="#1313132b"/><rect x="7" y="4" width="1" height="1" fill="#1212124b"/><rect x="8" y="4" width="1" height="1" fill="#12121285"/><rect x="9" y="4" width="1" height="1" fill="#12121287"/><rect x="10" y="4" width="1" height="1" fill="#12121286"/><rect x="11" y="4" width="1" height="1" fill="#12121286"/><rect x="12" y="4" width="1" height="1" fill="#12121287"/><rect x="13" y="4" width="1" height="1" fill="#12121285"/><rect x="14" y="4" width="1" height="1" fill="#1212124f"/><rect x="15" y="4" width="1" height="1" fill="#12121203"/><rect x="0" y="6" width="1" height="1" fill="#0c0c0c07"/><rect x="1" y="6" width="1" height="1" fill="#36363662"/><rect x="2" y="6" width="1" height="1" fill="#06060696"/><rect x="3" y="6" width="1" height="1" fill="#09090994"/><rect x="4" y="6" width="1" height="1" fill="#09090994"/><rect x="5" y="6" width="1" height="1" fill="#09090994"/><rect x="6" y="6" width="1" height="1" fill="#08080895"/><rect x="7" y="6" width="1" height="1" fill="#38383862"/><rect x="8" y="6" width="1" height="1" fill="#04040405"/><rect x="9" y="6" width="1" height="1" fill="#0a0a0a19"/><rect x="10" y="6" width="1" height="1" fill="#0909096b"/><rect x="11" y="6" width="1" height="1" fill="#09090979"/><rect x="12" y="6" width="1" height="1" fill="#09090979"/><rect x="13" y="6" width="1" height="1" fill="#09090978"/><rect x="14" y="6" width="1" height="1" fill="#09090945"/><rect x="15" y="6" width="1" height="1" fill="#09090902"/><rect x="0" y="7" width="1" height="1" fill="#0202022d"/><rect x="1" y="7" width="1" height="1" fill="#2c2c2ce3"/><rect x="2" y="7" width="1" height="1" fill="#525252ff"/><rect x="3" y="7" width="1" height="1" fill="#515151ff"/><rect x="4" y="7" width="1" height="1" fill="#515151ff"/><rect x="5" y="7" width="1" height="1" fill="#515151ff"/><rect x="6" y="7" width="1" height="1" fill="#525252ff"/><rect x="7" y="7" width="1" height="1" fill="#2d2d2de5"/><rect x="8" y="7" width="1" height="1" fill="#04040423"/><rect x="9" y="7" width="1" height="1" fill="#0909096d"/><rect x="10" y="7" width="1" height="1" fill="#090909ff"/><rect x="11" y="7" width="1" height="1" fill="#090909ff"/><rect x="12" y="7" width="1" height="1" fill="#090909ff"/><rect x="13" y="7" width="1" height="1" fill="#090909ff"/><rect x="14" y="7" width="1" height="1" fill="#090909d2"/><rect x="15" y="7" width="1" height="1" fill="#0909091a"/><rect x="0" y="8" width="1" height="1" fill="#0202022d"/><rect x="1" y="8" width="1" height="1" fill="#2c2c2ce4"/><rect x="2" y="8" width="1" height="1" fill="#525252ff"/><rect x="3" y="8" width="1" height="1" fill="#515151ff"/><rect x="4" y="8" width="1" height="1" fill="#515151ff"/><rect x="5" y="8" width="1" height="1" fill="#515151ff"/><rect x="6" y="8" width="1" height="1" fill="#525252ff"/><rect x="7" y="8" width="1" height="1" fill="#2d2d2de5"/><rect x="8" y="8" width="1" height="1" fill="#05050523"/><rect x="9" y="8" width="1" height="1" fill="#0909096f"/><rect x="10" y="8" width="1" height="1" fill="#090909ff"/><rect x="11" y="8" width="1" height="1" fill="#090909ff"/><rect x="12" y="8" width="1" height="1" fill="#090909ff"/><rect x="13" y="8" width="1" height="1" fill="#090909ff"/><rect x="14" y="8" width="1" height="1" fill="#090909d4"/><rect x="15" y="8" width="1" height="1" fill="#0909091b"/><rect x="0" y="9" width="1" height="1" fill="#0e0e0e07"/><rect x="1" y="9" width="1" height="1" fill="#38383862"/><rect x="2" y="9" width="1" height="1" fill="#07070796"/><rect x="3" y="9" width="1" height="1" fill="#08080896"/><rect x="4" y="9" width="1" height="1" fill="#08080896"/><rect x="5" y="9" width="1" height="1" fill="#08080896"/><rect x="6" y="9" width="1" height="1" fill="#06060697"/><rect x="7" y="9" width="1" height="1" fill="#38383863"/><rect x="8" y="9" width="1" height="1" fill="#05050505"/><rect x="9" y="9" width="1" height="1" fill="#0a0a0a1b"/><rect x="10" y="9" width="1" height="1" fill="#09090974"/><rect x="11" y="9" width="1" height="1" fill="#09090987"/><rect x="12" y="9" width="1" height="1" fill="#09090987"/><rect x="13" y="9" width="1" height="1" fill="#09090985"/><rect x="14" y="9" width="1" height="1" fill="#0909094b"/><rect x="15" y="9" width="1" height="1" fill="#09090902"/><rect x="0" y="11" width="1" height="1" fill="#0c0c0c07"/><rect x="1" y="11" width="1" height="1" fill="#36363662"/><rect x="2" y="11" width="1" height="1" fill="#06060696"/><rect x="3" y="11" width="1" height="1" fill="#0a0a0a96"/><rect x="4" y="11" width="1" height="1" fill="#5151518a"/><rect x="5" y="11" width="1" height="1" fill="#1212122a"/><rect x="7" y="11" width="1" height="1" fill="#29292946"/><rect x="8" y="11" width="1" height="1" fill="#2929297c"/><rect x="9" y="11" width="1" height="1" fill="#29292980"/><rect x="10" y="11" width="1" height="1" fill="#29292980"/><rect x="11" y="11" width="1" height="1" fill="#2929297f"/><rect x="12" y="11" width="1" height="1" fill="#29292980"/><rect x="13" y="11" width="1" height="1" fill="#2929297f"/><rect x="14" y="11" width="1" height="1" fill="#2929294a"/><rect x="15" y="11" width="1" height="1" fill="#29292903"/><rect x="0" y="12" width="1" height="1" fill="#0202022d"/><rect x="1" y="12" width="1" height="1" fill="#2c2c2ce3"/><rect x="2" y="12" width="1" height="1" fill="#525252ff"/><rect x="3" y="12" width="1" height="1" fill="#515151ff"/><rect x="4" y="12" width="1" height="1" fill="#4a4a4aff"/><rect x="5" y="12" width="1" height="1" fill="#52525289"/><rect x="6" y="12" width="1" height="1" fill="#14141415"/><rect x="7" y="12" width="1" height="1" fill="#292929d4"/><rect x="8" y="12" width="1" height="1" fill="#292929ff"/><rect x="9" y="12" width="1" height="1" fill="#292929ff"/><rect x="10" y="12" width="1" height="1" fill="#292929ff"/><rect x="11" y="12" width="1" height="1" fill="#292929ff"/><rect x="12" y="12" width="1" height="1" fill="#292929ff"/><rect x="13" y="12" width="1" height="1" fill="#292929ff"/><rect x="14" y="12" width="1" height="1" fill="#292929d5"/><rect x="15" y="12" width="1" height="1" fill="#2929291c"/><rect x="0" y="13" width="1" height="1" fill="#0202022d"/><rect x="1" y="13" width="1" height="1" fill="#2c2c2ce4"/><rect x="2" y="13" width="1" height="1" fill="#525252ff"/><rect x="3" y="13" width="1" height="1" fill="#515151ff"/><rect x="4" y="13" width="1" height="1" fill="#4a4a4aff"/><rect x="5" y="13" width="1" height="1" fill="#52525289"/><rect x="6" y="13" width="1" height="1" fill="#15151516"/><rect x="7" y="13" width="1" height="1" fill="#292929d5"/><rect x="8" y="13" width="1" height="1" fill="#292929ff"/><rect x="9" y="13" width="1" height="1" fill="#292929ff"/><rect x="10" y="13" width="1" height="1" fill="#292929ff"/><rect x="11" y="13" width="1" height="1" fill="#292929ff"/><rect x="12" y="13" width="1" height="1" fill="#292929ff"/><rect x="13" y="13" width="1" height="1" fill="#292929ff"/><rect x="14" y="13" width="1" height="1" fill="#292929d6"/><rect x="15" y="13" width="1" height="1" fill="#2929291d"/><rect x="0" y="14" width="1" height="1" fill="#0e0e0e07"/><rect x="1" y="14" width="1" height="1" fill="#38383862"/><rect x="2" y="14" width="1" height="1" fill="#07070795"/><rect x="3" y="14" width="1" height="1" fill="#08080895"/><rect x="4" y="14" width="1" height="1" fill="#5050508a"/><rect x="5" y="14" width="1" height="1" fill="#1313132a"/><rect x="7" y="14" width="1" height="1" fill="#2929294b"/><rect x="8" y="14" width="1" height="1" fill="#29292984"/><rect x="9" y="14" width="1" height="1" fill="#29292986"/><rect x="10" y="14" width="1" height="1" fill="#29292985"/><rect x="11" y="14" width="1" height="1" fill="#29292985"/><rect x="12" y="14" width="1" height="1" fill="#29292986"/><rect x="13" y="14" width="1" height="1" fill="#29292984"/><rect x="14" y="14" width="1" height="1" fill="#2929294e"/><rect x="15" y="14" width="1" height="1" fill="#29292903"/></svg>